<svg width="406" height="126" viewBox="0 0 406 126" fill="none" xmlns="http://www.w3.org/2000/svg">
<path d="M395.24 101.91C395.24 109.1 389.39 114.95 382.2 114.95H334.9C331.87 114.95 329.04 114.14 326.59 112.73C321.59 109.85 318.22 104.44 318.22 98.28C318.22 95.12 319.09 92.16 320.62 89.63C323.23 85.31 327.75 82.26 333.1 81.69C333.11 81.69 333.11 81.69 333.12 81.69H333.22C335.55 81.66 337.74 82.1 339.82 82.98C341.22 83.58 342.52 84.38 343.7 85.36C344.35 85.91 345.15 86.16 345.93 86.16C346.94 86.16 347.94 85.73 348.63 84.89C349.86 83.41 349.65 81.19 348.16 79.97C346.47 78.56 344.59 77.41 342.58 76.55C341.54 76.1 340.48 75.74 339.39 75.47C339.91 74.81 340.46 74.18 341.05 73.59C341.34 73.3 341.64 73.01 341.95 72.73C342.26 72.45 342.57 72.18 342.9 71.92C343.55 71.39 344.22 70.91 344.91 70.48C346.64 69.38 348.51 68.52 350.49 67.94C350.56 67.92 350.64 67.89 350.73 67.87C351.06 67.78 351.39 67.69 351.72 67.62C352.12 67.52 352.52 67.44 352.93 67.37C352.93 67.37 352.94 67.37 352.95 67.37C353.36 67.29 353.78 67.23 354.19 67.19C354.61 67.14 355.03 67.1 355.45 67.08C355.88 67.05 356.3 67.04 356.73 67.04C367.27 67.04 376.4 74.54 378.44 84.85C378.89 87.13 380.81 88.84 383.13 88.99C389.93 89.48 395.24 95.14 395.24 101.91Z" fill="white"/>
<path d="M48.7 100.73C47.36 100.73 45.22 101.24 42.31 102.27C39.39 103.31 37.2 103.82 35.75 103.82C27.87 103.82 23.94 99.73 23.94 91.55C23.94 83.37 27.87 79.28 35.75 79.28C37.2 79.28 39.39 79.8 42.31 80.83C45.22 81.86 47.36 82.38 48.7 82.38C50.05 82.38 51.29 81.71 52.41 80.39C53.54 79.07 54.1 77.55 54.1 75.85C54.1 74.15 52.79 72.24 50.18 70.11C47.57 67.97 42.56 66.91 35.17 66.91C27.77 66.91 21.73 69.19 17.05 73.74C12.36 78.3 10.01 84.25 10.01 91.59C10.01 98.92 12.37 104.86 17.08 109.39C21.79 113.93 27.79 116.2 35.08 116.2C42.37 116.2 47.36 115.13 50.06 113C52.75 110.86 54.1 108.95 54.1 107.25C54.1 105.55 53.54 104.04 52.41 102.71C51.29 101.39 50.05 100.73 48.7 100.73ZM53.27 17.34C48.6 12.79 42.56 10.51 35.17 10.51C27.77 10.51 21.73 12.79 17.05 17.34C12.36 21.9 10.01 27.85 10.01 35.19C10.01 42.52 12.37 48.46 17.08 52.99C21.79 57.53 27.79 59.8 35.08 59.8C42.37 59.8 48.39 57.53 53.15 52.99C57.91 48.46 60.29 42.52 60.29 35.19C60.29 27.85 57.95 21.9 53.27 17.34ZM87.99 68.31C83.35 68.31 81.03 70.35 81.03 74.43V86.31H71.54V74.43C71.54 70.35 69.22 68.31 64.58 68.31C59.94 68.31 57.62 70.35 57.62 74.43V109.66C57.62 113.73 59.94 115.77 64.58 115.77C69.22 115.77 71.54 113.73 71.54 109.66V97.56H81.03V109.66C81.03 113.73 83.35 115.77 87.99 115.77C92.63 115.77 94.95 113.73 94.95 109.66V74.43C94.95 70.35 92.63 68.31 87.99 68.31ZM118.28 13.85C117.14 12.42 115.16 11.71 112.34 11.74C109.51 11.76 107.57 13.39 106.52 16.62L101.17 32.94L97.94 25.76C96.46 22.48 94.28 20.84 91.4 20.84C88.52 20.84 86.32 22.48 84.79 25.76L81.49 32.94L76.21 16.62C75.16 13.39 73.21 11.76 70.36 11.74C67.51 11.71 65.53 12.41 64.42 13.83C63.31 15.25 62.75 16.68 62.75 18.14C62.75 19.59 63.02 21.15 63.56 22.81L73.82 54.52C75.46 57.85 77.71 59.51 80.56 59.51C83.4 59.51 85.59 57.85 87.11 54.52L91.33 45.31L95.55 54.52C97 57.85 99.17 59.51 102.05 59.51C104.94 59.51 107.2 57.85 108.84 54.52L119.17 22.81C119.71 21.17 119.98 19.62 119.98 18.17C119.98 16.72 119.42 15.28 118.28 13.85ZM137.91 68.31C135.19 68.31 133.04 69.27 131.44 71.2L121.67 82.94L111.83 71.2C110.23 69.3 108.1 68.34 105.43 68.31C100.79 68.24 98.47 70.28 98.47 74.43V109.66C98.47 113.73 100.79 115.77 105.43 115.77C110.07 115.77 112.39 113.73 112.39 109.66V90.32L121.67 101.15L130.95 90.25V109.66C130.95 113.73 133.27 115.77 137.91 115.77C142.55 115.77 144.87 113.73 144.87 109.66V74.43C144.87 70.35 142.55 68.31 137.91 68.31ZM165.7 17.34C161.03 12.79 154.99 10.51 147.6 10.51C140.2 10.51 134.16 12.79 129.48 17.34C124.79 21.9 122.44 27.85 122.44 35.19C122.44 42.52 124.8 48.46 129.51 52.99C134.22 57.53 140.22 59.8 147.51 59.8C154.8 59.8 160.82 57.53 165.58 52.99C170.34 48.46 172.72 42.52 172.72 35.19C172.72 27.85 170.38 21.9 165.7 17.34ZM178.83 68.31C174.19 68.31 171.87 70.35 171.87 74.43V100.87C171.87 103.54 170.28 104.88 167.09 104.88C163.91 104.88 162.31 103.54 162.31 100.87V74.43C162.31 70.35 159.99 68.31 155.35 68.31C150.71 68.31 148.39 70.35 148.39 74.43V102.91C148.39 107.38 150.29 110.71 154.1 112.87C157.91 115.04 162.24 116.13 167.09 116.13C171.94 116.13 176.27 115.04 180.08 112.87C183.89 110.71 185.8 107.38 185.8 102.91V74.43C185.8 70.35 183.48 68.31 178.83 68.31ZM213.87 44.33C212.52 44.33 210.39 44.84 207.47 45.87C204.55 46.91 202.37 47.42 200.91 47.42C193.04 47.42 189.1 43.33 189.1 35.15C189.1 26.97 193.04 22.88 200.91 22.88C202.37 22.88 204.55 23.4 207.47 24.43C210.39 25.46 212.52 25.98 213.87 25.98C215.22 25.98 216.45 25.31 217.58 23.99C218.7 22.67 219.26 21.15 219.26 19.45C219.26 17.75 217.96 15.84 215.34 13.71C212.73 11.57 207.73 10.51 200.33 10.51C192.94 10.51 186.9 12.79 182.21 17.34C177.52 21.9 175.18 27.85 175.18 35.19C175.18 42.52 177.53 48.46 182.25 52.99C186.96 57.53 192.96 59.8 200.25 59.8C207.53 59.8 212.53 58.73 215.22 56.6C217.92 54.46 219.26 52.55 219.26 50.85C219.26 49.15 218.7 47.64 217.58 46.31C216.45 44.99 215.22 44.33 213.87 44.33ZM225.45 104.73L218.49 95.59C223.23 92.92 225.59 88.53 225.59 82.41C225.59 78.99 224.3 75.78 221.73 72.8C219.15 69.81 215.91 68.31 212.02 68.31H196.27C191.63 68.31 189.31 70.35 189.31 74.43V109.66C189.31 113.73 191.63 115.77 196.27 115.77C200.91 115.77 203.23 113.73 203.23 109.66V97.77L214.55 112.89C215.96 114.79 217.45 115.74 219.02 115.74C220.59 115.74 222.31 115.02 224.19 113.58C226.06 112.14 227 110.64 227 109.09C226.99 107.55 226.48 106.09 225.45 104.73ZM268.24 104.59L256.78 91.94L268.24 79.35C269.85 77.57 270.66 75.91 270.66 74.36C270.66 72.81 269.94 71.4 268.5 70.12C267.06 68.85 265.52 68.21 263.9 68.21C262.27 68.21 260.55 69.18 258.75 71.13L243.91 87.16V74.43C243.91 70.35 241.59 68.31 236.95 68.31C232.31 68.31 229.99 70.35 229.99 74.43V109.66C229.99 113.73 232.31 115.77 236.95 115.77C241.59 115.77 243.91 113.73 243.91 109.66V96.79L258.75 112.89C260.53 114.81 262.24 115.77 263.9 115.77C265.55 115.77 267.09 115.13 268.54 113.84C269.98 112.55 270.7 111.15 270.7 109.62C270.7 108.1 269.87 106.42 268.24 104.59ZM265.5 17.34C260.83 12.79 254.79 10.51 247.4 10.51C240 10.51 233.96 12.79 229.27 17.34C224.59 21.9 222.24 27.85 222.24 35.19C222.24 42.52 224.6 48.46 229.31 52.99C234.02 57.53 240.02 59.8 247.31 59.8C254.6 59.8 260.62 57.53 265.38 52.99C270.14 48.46 272.52 42.52 272.52 35.19C272.52 27.85 270.19 21.9 265.5 17.34ZM317.37 104.81L302.81 73.09C301.36 69.91 299.14 68.31 296.17 68.31C293.19 68.31 290.98 69.91 289.52 73.09L275.04 104.81C274.45 106.09 274.16 107.41 274.16 108.74C274.16 110.08 274.75 111.58 275.93 113.26C277.12 114.94 279.08 115.77 281.81 115.77C284.54 115.77 286.5 114.18 287.69 110.99L289.03 107.41H303.37L304.71 110.99C305.91 114.18 307.89 115.77 310.67 115.77C313.45 115.77 315.41 114.94 316.56 113.28C317.71 111.61 318.28 110.11 318.28 108.78C318.27 107.44 317.98 106.12 317.37 104.81ZM330.51 13.85C329.37 12.42 327.39 11.71 324.57 11.74C321.74 11.76 319.8 13.39 318.75 16.62L313.4 32.94L310.17 25.76C308.69 22.48 306.51 20.84 303.63 20.84C300.75 20.84 298.54 22.48 297.02 25.76L293.72 32.94L288.44 16.62C287.39 13.39 285.44 11.76 282.59 11.74C279.74 11.71 277.76 12.41 276.65 13.83C275.53 15.25 274.98 16.68 274.98 18.14C274.98 19.59 275.25 21.15 275.79 22.81L286.05 54.52C287.69 57.85 289.94 59.51 292.78 59.51C295.63 59.51 297.82 57.85 299.34 54.52L303.56 45.31L307.78 54.52C309.23 57.85 311.4 59.51 314.28 59.51C317.16 59.51 319.43 57.85 321.07 54.52L331.4 22.81C331.94 21.17 332.21 19.62 332.21 18.17C332.22 16.72 331.64 15.28 330.51 13.85ZM377.88 48.41L363.32 16.69C361.87 13.51 359.66 11.91 356.68 11.91C353.7 11.91 351.49 13.51 350.04 16.69L335.55 48.41C334.97 49.69 334.67 51.01 334.67 52.34C334.67 53.68 335.26 55.19 336.45 56.86C337.63 58.54 339.59 59.37 342.32 59.37C345.05 59.37 347.01 57.78 348.21 54.59L349.54 51.01H363.89L365.22 54.59C366.42 57.78 368.41 59.37 371.18 59.37C373.96 59.37 375.92 58.54 377.07 56.88C378.22 55.21 378.79 53.71 378.79 52.38C378.8 51.04 378.49 49.72 377.88 48.41Z" fill="#1D1D1B"/>
<path d="M53.27 17.34C48.6 12.79 42.56 10.51 35.17 10.51C27.77 10.51 21.73 12.79 17.05 17.34C12.36 21.9 10.01 27.85 10.01 35.19C10.01 42.52 12.37 48.46 17.08 52.99C21.79 57.53 27.79 59.8 35.08 59.8C42.37 59.8 48.39 57.53 53.15 52.99C57.91 48.46 60.29 42.52 60.29 35.19C60.29 27.85 57.95 21.9 53.27 17.34ZM43.61 43.94C41.48 46.26 38.67 47.42 35.17 47.42C31.67 47.42 28.85 46.27 26.71 43.98C24.58 41.68 23.51 38.75 23.51 35.2C23.51 31.65 24.58 28.71 26.71 26.38C28.85 24.05 31.67 22.88 35.19 22.88C38.7 22.88 41.51 24.04 43.62 26.36C45.73 28.68 46.79 31.61 46.79 35.15C46.79 38.69 45.73 41.62 43.61 43.94Z" fill="#F8EBCA"/>
<path d="M118.28 13.85C117.14 12.42 115.16 11.71 112.34 11.74C109.51 11.76 107.57 13.39 106.52 16.62L101.17 32.94L97.94 25.76C96.46 22.48 94.28 20.84 91.4 20.84C88.52 20.84 86.32 22.48 84.79 25.76L81.49 32.94L76.21 16.62C75.16 13.39 73.21 11.76 70.36 11.74C67.51 11.71 65.53 12.41 64.42 13.83C63.31 15.25 62.75 16.68 62.75 18.14C62.75 19.59 63.02 21.15 63.56 22.81L73.82 54.52C75.46 57.85 77.71 59.51 80.56 59.51C83.4 59.51 85.59 57.85 87.11 54.52L91.33 45.31L95.55 54.52C97 57.85 99.17 59.51 102.05 59.51C104.94 59.51 107.2 57.85 108.84 54.52L119.17 22.81C119.71 21.17 119.98 19.62 119.98 18.17C119.98 16.72 119.42 15.28 118.28 13.85Z" fill="#F8EBCA"/>
<path d="M165.7 17.34C161.03 12.79 154.99 10.51 147.6 10.51C140.2 10.51 134.16 12.79 129.48 17.34C124.79 21.9 122.44 27.85 122.44 35.19C122.44 42.52 124.8 48.46 129.51 52.99C134.22 57.53 140.22 59.8 147.51 59.8C154.8 59.8 160.82 57.53 165.58 52.99C170.34 48.46 172.72 42.52 172.72 35.19C172.72 27.85 170.38 21.9 165.7 17.34ZM156.04 43.94C153.91 46.26 151.1 47.42 147.6 47.42C144.09 47.42 141.28 46.27 139.14 43.98C137.01 41.68 135.94 38.75 135.94 35.2C135.94 31.65 137.01 28.71 139.14 26.38C141.28 24.05 144.1 22.88 147.62 22.88C151.13 22.88 153.94 24.04 156.05 26.36C158.16 28.68 159.22 31.61 159.22 35.15C159.22 38.69 158.16 41.62 156.04 43.94Z" fill="#F8EBCA"/>
<path d="M213.87 44.33C212.52 44.33 210.39 44.84 207.47 45.87C204.55 46.91 202.37 47.42 200.91 47.42C193.04 47.42 189.1 43.33 189.1 35.15C189.1 26.97 193.04 22.88 200.91 22.88C202.37 22.88 204.55 23.4 207.47 24.43C210.39 25.46 212.52 25.98 213.87 25.98C215.22 25.98 216.45 25.31 217.58 23.99C218.7 22.67 219.26 21.15 219.26 19.45C219.26 17.75 217.96 15.84 215.34 13.71C212.73 11.57 207.73 10.51 200.33 10.51C192.94 10.51 186.9 12.79 182.21 17.34C177.52 21.9 175.18 27.85 175.18 35.19C175.18 42.52 177.53 48.46 182.25 52.99C186.96 57.53 192.96 59.8 200.25 59.8C207.53 59.8 212.53 58.73 215.22 56.6C217.92 54.46 219.26 52.55 219.26 50.85C219.26 49.15 218.7 47.64 217.58 46.31C216.45 44.99 215.22 44.33 213.87 44.33Z" fill="#F8EBCA"/>
<path d="M265.5 17.34C260.83 12.79 254.79 10.51 247.4 10.51C240 10.51 233.96 12.79 229.27 17.34C224.59 21.9 222.24 27.85 222.24 35.19C222.24 42.52 224.6 48.46 229.31 52.99C234.02 57.53 240.02 59.8 247.31 59.8C254.6 59.8 260.62 57.53 265.38 52.99C270.14 48.46 272.52 42.52 272.52 35.19C272.52 27.85 270.19 21.9 265.5 17.34ZM255.84 43.94C253.72 46.26 250.91 47.42 247.41 47.42C243.9 47.42 241.08 46.27 238.95 43.98C236.82 41.68 235.75 38.75 235.75 35.2C235.75 31.65 236.82 28.71 238.95 26.38C241.08 24.05 243.91 22.88 247.42 22.88C250.94 22.88 253.75 24.04 255.86 26.36C257.97 28.68 259.03 31.61 259.03 35.15C259.02 38.69 257.97 41.62 255.84 43.94Z" fill="#F8EBCA"/>
<path d="M330.51 13.85C329.37 12.42 327.39 11.71 324.57 11.74C321.74 11.76 319.8 13.39 318.75 16.62L313.4 32.94L310.17 25.76C308.69 22.48 306.51 20.84 303.63 20.84C300.75 20.84 298.54 22.48 297.02 25.76L293.72 32.94L288.44 16.62C287.39 13.39 285.44 11.76 282.59 11.74C279.74 11.71 277.76 12.41 276.65 13.83C275.53 15.25 274.98 16.68 274.98 18.14C274.98 19.59 275.25 21.15 275.79 22.81L286.05 54.52C287.69 57.85 289.94 59.51 292.78 59.51C295.63 59.51 297.82 57.85 299.34 54.52L303.56 45.31L307.78 54.52C309.23 57.85 311.4 59.51 314.28 59.51C317.16 59.51 319.43 57.85 321.07 54.52L331.4 22.81C331.94 21.17 332.21 19.62 332.21 18.17C332.22 16.72 331.64 15.28 330.51 13.85Z" fill="#F8EBCA"/>
<path d="M377.88 48.41L363.32 16.69C361.87 13.51 359.66 11.91 356.68 11.91C353.7 11.91 351.49 13.51 350.04 16.69L335.55 48.41C334.97 49.69 334.67 51.01 334.67 52.34C334.67 53.68 335.26 55.19 336.45 56.86C337.63 58.54 339.59 59.37 342.32 59.37C345.05 59.37 347.01 57.78 348.21 54.59L349.54 51.01H363.89L365.22 54.59C366.42 57.78 368.41 59.37 371.18 59.37C373.96 59.37 375.92 58.54 377.07 56.88C378.22 55.21 378.79 53.71 378.79 52.38C378.8 51.04 378.49 49.72 377.88 48.41ZM353.7 39.76L356.73 31.53L359.75 39.76H353.7Z" fill="#F8EBCA"/>
<path d="M48.7 100.73C47.36 100.73 45.22 101.24 42.31 102.27C39.39 103.31 37.2 103.82 35.75 103.82C27.87 103.82 23.94 99.73 23.94 91.55C23.94 83.37 27.87 79.28 35.75 79.28C37.2 79.28 39.39 79.8 42.31 80.83C45.22 81.86 47.36 82.38 48.7 82.38C50.05 82.38 51.29 81.71 52.41 80.39C53.54 79.07 54.1 77.55 54.1 75.85C54.1 74.15 52.79 72.24 50.18 70.11C47.57 67.97 42.56 66.91 35.17 66.91C27.77 66.91 21.73 69.19 17.05 73.74C12.36 78.3 10.01 84.25 10.01 91.59C10.01 98.92 12.37 104.86 17.08 109.39C21.79 113.93 27.79 116.2 35.08 116.2C42.37 116.2 47.36 115.13 50.06 113C52.75 110.86 54.1 108.95 54.1 107.25C54.1 105.55 53.54 104.04 52.41 102.71C51.29 101.39 50.05 100.73 48.7 100.73Z" fill="#3088FF"/>
<path d="M87.99 68.31C83.35 68.31 81.03 70.35 81.03 74.43V86.31H71.54V74.43C71.54 70.35 69.22 68.31 64.58 68.31C59.94 68.31 57.62 70.35 57.62 74.43V109.66C57.62 113.73 59.94 115.77 64.58 115.77C69.22 115.77 71.54 113.73 71.54 109.66V97.56H81.03V109.66C81.03 113.73 83.35 115.77 87.99 115.77C92.63 115.77 94.95 113.73 94.95 109.66V74.43C94.95 70.35 92.63 68.31 87.99 68.31Z" fill="#3088FF"/>
<path d="M137.91 68.31C135.19 68.31 133.04 69.27 131.44 71.2L121.67 82.94L111.83 71.2C110.23 69.3 108.1 68.34 105.43 68.31C100.79 68.24 98.47 70.28 98.47 74.43V109.66C98.47 113.73 100.79 115.77 105.43 115.77C110.07 115.77 112.39 113.73 112.39 109.66V90.32L121.67 101.15L130.95 90.25V109.66C130.95 113.73 133.27 115.77 137.91 115.77C142.55 115.77 144.87 113.73 144.87 109.66V74.43C144.87 70.35 142.55 68.31 137.91 68.31Z" fill="#3088FF"/>
<path d="M178.83 68.31C174.19 68.31 171.87 70.35 171.87 74.43V100.87C171.87 103.54 170.28 104.88 167.09 104.88C163.91 104.88 162.31 103.54 162.31 100.87V74.43C162.31 70.35 159.99 68.31 155.35 68.31C150.71 68.31 148.39 70.35 148.39 74.43V102.91C148.39 107.38 150.29 110.71 154.1 112.87C157.91 115.04 162.24 116.13 167.09 116.13C171.94 116.13 176.27 115.04 180.08 112.87C183.89 110.71 185.8 107.38 185.8 102.91V74.43C185.8 70.35 183.48 68.31 178.83 68.31Z" fill="#3088FF"/>
<path d="M225.45 104.73L218.49 95.59C223.23 92.92 225.59 88.53 225.59 82.41C225.59 78.99 224.3 75.78 221.73 72.8C219.15 69.81 215.91 68.31 212.02 68.31H196.27C191.63 68.31 189.31 70.35 189.31 74.43V109.66C189.31 113.73 191.63 115.77 196.27 115.77C200.91 115.77 203.23 113.73 203.23 109.66V97.77L214.55 112.89C215.96 114.79 217.45 115.74 219.02 115.74C220.59 115.74 222.31 115.02 224.19 113.58C226.06 112.14 227 110.64 227 109.09C226.99 107.55 226.48 106.09 225.45 104.73ZM207.24 88.7H203.23V77.88H207.24C211.18 77.88 213.15 79.68 213.15 83.29C213.14 86.9 211.18 88.7 207.24 88.7Z" fill="#3088FF"/>
<path d="M268.24 104.59L256.78 91.94L268.24 79.35C269.85 77.57 270.66 75.91 270.66 74.36C270.66 72.81 269.94 71.4 268.5 70.12C267.06 68.85 265.52 68.21 263.9 68.21C262.27 68.21 260.55 69.18 258.75 71.13L243.91 87.16V74.43C243.91 70.35 241.59 68.31 236.95 68.31C232.31 68.31 229.99 70.35 229.99 74.43V109.66C229.99 113.73 232.31 115.77 236.95 115.77C241.59 115.77 243.91 113.73 243.91 109.66V96.79L258.75 112.89C260.53 114.81 262.24 115.77 263.9 115.77C265.55 115.77 267.09 115.13 268.54 113.84C269.98 112.55 270.7 111.15 270.7 109.62C270.7 108.1 269.87 106.42 268.24 104.59Z" fill="#3088FF"/>
<path d="M317.37 104.81L302.81 73.09C301.36 69.91 299.14 68.31 296.17 68.31C293.19 68.31 290.98 69.91 289.52 73.09L275.04 104.81C274.45 106.09 274.16 107.41 274.16 108.74C274.16 110.08 274.75 111.58 275.93 113.26C277.12 114.94 279.08 115.77 281.81 115.77C284.54 115.77 286.5 114.18 287.69 110.99L289.03 107.41H303.37L304.71 110.99C305.91 114.18 307.89 115.77 310.67 115.77C313.45 115.77 315.41 114.94 316.56 113.28C317.71 111.61 318.28 110.11 318.28 108.78C318.27 107.44 317.98 106.12 317.37 104.81ZM293.18 96.16L296.2 87.93L299.23 96.16H293.18Z" fill="#3088FF"/>
<path d="M387.63 79.29C386.1 74.5 383.49 70.23 380.11 66.73C382.71 65.29 384.35 63.42 385.3 62.05C387.61 58.7 388.79 55.28 388.79 51.87C388.79 49.08 388.17 46.34 386.96 43.73L372.42 12.04C369.34 5.29001 363.6 1.41 356.68 1.41C349.83 1.41 344.15 5.19001 341.06 11.79C340.42 10.16 339.5 8.60003 338.33 7.12003C336.19 4.43003 332.09 1.23001 324.69 1.23001H324.48C317.82 1.29001 312.43 5.10001 309.79 11.51C307.88 10.74 305.81 10.35 303.63 10.35C301.42 10.35 299.33 10.75 297.4 11.54C294.76 5.11001 289.35 1.29001 282.67 1.23001H282.45C275.33 1.23001 271.28 4.16001 269.08 6.79001C263.07 2.29001 255.8 0 247.39 0C238.32 0 230.57 2.66001 224.29 7.89001C223.51 7.06001 222.63 6.25001 221.65 5.45001C217.09 1.73001 210.32 0 200.32 0C190.27 0 181.82 3.25001 175.22 9.67001C174.78 10.1 174.35 10.54 173.94 10.99C173.53 10.54 173.11 10.11 172.67 9.68002C166.08 3.26002 157.64 0 147.58 0C139.16 0 131.86 2.29003 125.84 6.81003C123.63 4.19003 119.57 1.23001 112.46 1.23001H112.24C105.59 1.29001 100.19 5.10001 97.55 11.51C95.65 10.74 93.57 10.35 91.39 10.35C89.18 10.35 87.09 10.75 85.16 11.54C82.52 5.11001 77.11 1.29001 70.43 1.23001H70.21C63.09 1.23001 59.04 4.16001 56.84 6.79001C50.83 2.29001 43.56 0 35.15 0C25.1 0 16.66 3.25001 10.06 9.67001C3.39 16.16 0 24.58 0 34.68C0 44.81 3.41001 53.23 10.13 59.69C11.33 60.85 12.58 61.91 13.9 62.85C12.56 63.81 11.28 64.88 10.06 66.07C3.39 72.56 0 80.98 0 91.08C0 101.22 3.41001 109.62 10.13 116.1C15.35 121.11 21.66 124.18 28.96 125.25H382.63C395.3 125.03 405.55 114.65 405.55 101.91C405.56 91.05 397.94 81.75 387.63 79.29ZM335.56 48.41L350.05 16.69C351.5 13.51 353.71 11.91 356.69 11.91C359.67 11.91 361.88 13.51 363.33 16.69L377.89 48.41C378.5 49.72 378.8 51.04 378.8 52.38C378.8 53.71 378.23 55.21 377.08 56.88C375.93 58.54 373.97 59.37 371.19 59.37C368.42 59.37 366.43 57.78 365.23 54.59L363.9 51.01H349.55L348.22 54.59C347.02 57.78 345.06 59.37 342.33 59.37C339.6 59.37 337.64 58.54 336.46 56.86C335.27 55.19 334.68 53.68 334.68 52.34C334.68 51.01 334.98 49.69 335.56 48.41ZM276.66 13.83C277.77 12.41 279.75 11.71 282.6 11.74C285.45 11.76 287.4 13.39 288.45 16.62L293.73 32.94L297.03 25.76C298.55 22.48 300.76 20.84 303.64 20.84C306.52 20.84 308.7 22.48 310.18 25.76L313.41 32.94L318.76 16.62C319.81 13.39 321.75 11.76 324.58 11.74C327.4 11.71 329.38 12.42 330.52 13.85C331.65 15.28 332.22 16.72 332.22 18.17C332.22 19.62 331.95 21.17 331.41 22.81L321.08 54.52C319.44 57.85 317.17 59.51 314.29 59.51C311.41 59.51 309.24 57.85 307.79 54.52L303.57 45.31L299.35 54.52C297.83 57.85 295.64 59.51 292.79 59.51C289.95 59.51 287.7 57.85 286.06 54.52L275.8 22.81C275.26 21.15 274.99 19.59 274.99 18.14C274.99 16.68 275.54 15.25 276.66 13.83ZM182.21 17.34C186.9 12.79 192.94 10.51 200.33 10.51C207.73 10.51 212.73 11.57 215.34 13.71C217.96 15.84 219.26 17.75 219.26 19.45C219.26 21.15 218.7 22.67 217.58 23.99C216.45 25.31 215.22 25.98 213.87 25.98C212.52 25.98 210.39 25.46 207.47 24.43C204.55 23.4 202.37 22.88 200.91 22.88C193.04 22.88 189.1 26.97 189.1 35.15C189.1 43.33 193.04 47.42 200.91 47.42C202.37 47.42 204.55 46.91 207.47 45.87C210.39 44.84 212.52 44.33 213.87 44.33C215.22 44.33 216.45 44.99 217.58 46.31C218.7 47.64 219.26 49.15 219.26 50.85C219.26 52.55 217.92 54.46 215.22 56.6C212.53 58.73 207.53 59.8 200.25 59.8C192.96 59.8 186.96 57.53 182.25 52.99C177.53 48.46 175.18 42.52 175.18 35.19C175.18 27.85 177.51 21.9 182.21 17.34ZM10.01 35.19C10.01 27.85 12.36 21.9 17.05 17.34C21.73 12.79 27.77 10.51 35.17 10.51C42.56 10.51 48.6 12.79 53.27 17.34C57.95 21.9 60.29 27.85 60.29 35.19C60.29 42.52 57.91 48.46 53.15 52.99C48.39 57.53 42.37 59.8 35.08 59.8C27.79 59.8 21.79 57.53 17.08 52.99C12.37 48.46 10.01 42.52 10.01 35.19ZM35.74 103.82C37.19 103.82 39.38 103.31 42.3 102.27C45.21 101.24 47.35 100.73 48.69 100.73C50.04 100.73 51.28 101.39 52.4 102.71C53.53 104.04 54.09 105.55 54.09 107.25C54.09 108.95 52.74 110.86 50.05 113C47.35 115.13 42.36 116.2 35.07 116.2C27.78 116.2 21.78 113.93 17.07 109.39C12.36 104.86 10 98.92 10 91.59C10 84.25 12.35 78.3 17.04 73.74C21.72 69.19 27.76 66.91 35.16 66.91C42.55 66.91 47.56 67.97 50.17 70.11C52.78 72.24 54.09 74.15 54.09 75.85C54.09 77.55 53.53 79.07 52.4 80.39C51.28 81.71 50.04 82.38 48.69 82.38C47.35 82.38 45.21 81.86 42.3 80.83C39.38 79.8 37.19 79.28 35.74 79.28C27.86 79.28 23.93 83.37 23.93 91.55C23.93 99.73 27.87 103.82 35.74 103.82ZM94.95 109.66C94.95 113.73 92.63 115.77 87.99 115.77C83.35 115.77 81.03 113.73 81.03 109.66V97.56H71.54V109.66C71.54 113.73 69.22 115.77 64.58 115.77C59.94 115.77 57.62 113.73 57.62 109.66V74.43C57.62 70.35 59.94 68.31 64.58 68.31C69.22 68.31 71.54 70.35 71.54 74.43V86.31H81.03V74.43C81.03 70.35 83.35 68.31 87.99 68.31C92.63 68.31 94.95 70.35 94.95 74.43V109.66ZM95.55 54.52L91.33 45.31L87.11 54.52C85.59 57.85 83.4 59.51 80.56 59.51C77.71 59.51 75.46 57.85 73.82 54.52L63.56 22.81C63.02 21.15 62.75 19.59 62.75 18.14C62.75 16.68 63.31 15.25 64.42 13.83C65.53 12.41 67.51 11.71 70.36 11.74C73.21 11.76 75.16 13.39 76.21 16.62L81.49 32.94L84.79 25.76C86.32 22.48 88.52 20.84 91.4 20.84C94.28 20.84 96.46 22.48 97.94 25.76L101.17 32.94L106.52 16.62C107.57 13.39 109.51 11.76 112.34 11.74C115.16 11.71 117.14 12.42 118.28 13.85C119.42 15.28 119.98 16.72 119.98 18.17C119.98 19.62 119.71 21.17 119.17 22.81L108.84 54.52C107.2 57.85 104.94 59.51 102.05 59.51C99.17 59.51 96.99 57.85 95.55 54.52ZM144.87 109.66C144.87 113.73 142.55 115.77 137.91 115.77C133.27 115.77 130.95 113.73 130.95 109.66V90.25L121.67 101.15L112.39 90.32V109.66C112.39 113.73 110.07 115.77 105.43 115.77C100.79 115.77 98.47 113.73 98.47 109.66V74.43C98.47 70.28 100.79 68.24 105.43 68.31C108.1 68.34 110.23 69.3 111.83 71.2L121.67 82.94L131.44 71.2C133.04 69.27 135.19 68.31 137.91 68.31C142.55 68.31 144.87 70.35 144.87 74.43V109.66ZM129.51 52.99C124.8 48.46 122.44 42.52 122.44 35.19C122.44 27.85 124.79 21.9 129.48 17.34C134.16 12.79 140.2 10.51 147.6 10.51C154.99 10.51 161.03 12.79 165.7 17.34C170.38 21.9 172.72 27.85 172.72 35.19C172.72 42.52 170.34 48.46 165.58 52.99C160.82 57.53 154.8 59.8 147.51 59.8C140.22 59.8 134.22 57.53 129.51 52.99ZM185.8 102.91C185.8 107.38 183.89 110.71 180.08 112.87C176.27 115.04 171.94 116.13 167.09 116.13C162.24 116.13 157.91 115.04 154.1 112.87C150.29 110.71 148.39 107.38 148.39 102.91V74.43C148.39 70.35 150.71 68.31 155.35 68.31C159.99 68.31 162.31 70.35 162.31 74.43V100.87C162.31 103.54 163.91 104.88 167.09 104.88C170.28 104.88 171.87 103.54 171.87 100.87V74.43C171.87 70.35 174.19 68.31 178.83 68.31C183.48 68.31 185.8 70.35 185.8 74.43V102.91ZM224.19 113.58C222.31 115.02 220.59 115.74 219.02 115.74C217.45 115.74 215.96 114.79 214.55 112.89L203.23 97.77V109.66C203.23 113.73 200.91 115.77 196.27 115.77C191.63 115.77 189.31 113.73 189.31 109.66V74.43C189.31 70.35 191.63 68.31 196.27 68.31H212.02C215.91 68.31 219.15 69.81 221.73 72.8C224.3 75.78 225.59 78.99 225.59 82.41C225.59 88.53 223.23 92.92 218.49 95.59L225.45 104.73C226.48 106.09 227 107.55 227 109.09C226.99 110.64 226.06 112.14 224.19 113.58ZM268.54 113.84C267.09 115.13 265.55 115.77 263.9 115.77C262.24 115.77 260.53 114.81 258.75 112.89L243.91 96.79V109.66C243.91 113.73 241.59 115.77 236.95 115.77C232.31 115.77 229.99 113.73 229.99 109.66V74.43C229.99 70.35 232.31 68.31 236.95 68.31C241.59 68.31 243.91 70.35 243.91 74.43V87.16L258.75 71.13C260.55 69.18 262.27 68.21 263.9 68.21C265.52 68.21 267.06 68.85 268.5 70.12C269.94 71.4 270.66 72.81 270.66 74.36C270.66 75.91 269.85 77.57 268.24 79.35L256.78 91.94L268.24 104.59C269.88 106.42 270.7 108.1 270.7 109.62C270.7 111.15 269.98 112.55 268.54 113.84ZM265.38 52.99C260.62 57.53 254.6 59.8 247.31 59.8C240.02 59.8 234.02 57.53 229.31 52.99C224.6 48.46 222.24 42.52 222.24 35.19C222.24 27.85 224.59 21.9 229.27 17.34C233.96 12.79 240 10.51 247.4 10.51C254.79 10.51 260.83 12.79 265.5 17.34C270.18 21.9 272.52 27.85 272.52 35.19C272.52 42.52 270.14 48.46 265.38 52.99ZM316.56 113.28C315.41 114.94 313.45 115.77 310.67 115.77C307.89 115.77 305.91 114.18 304.71 110.99L303.37 107.41H289.03L287.69 110.99C286.5 114.18 284.54 115.77 281.81 115.77C279.08 115.77 277.12 114.94 275.93 113.26C274.75 111.58 274.16 110.08 274.16 108.74C274.16 107.41 274.45 106.09 275.04 104.81L289.52 73.09C290.98 69.91 293.19 68.31 296.17 68.31C299.14 68.31 301.36 69.91 302.81 73.09L317.37 104.81C317.98 106.12 318.28 107.44 318.28 108.78C318.27 110.11 317.71 111.61 316.56 113.28ZM382.21 114.95H334.91C331.88 114.95 329.05 114.14 326.6 112.73C321.6 109.85 318.23 104.44 318.23 98.28C318.23 95.12 319.1 92.16 320.63 89.63C323.24 85.31 327.76 82.26 333.11 81.69C333.12 81.69 333.12 81.69 333.13 81.69H333.23C335.56 81.66 337.75 82.1 339.83 82.98C341.23 83.58 342.53 84.38 343.71 85.36C344.36 85.91 345.16 86.16 345.94 86.16C346.95 86.16 347.95 85.73 348.64 84.89C349.87 83.41 349.66 81.19 348.17 79.97C346.48 78.56 344.6 77.41 342.59 76.55C341.55 76.1 340.49 75.74 339.4 75.47C339.92 74.81 340.47 74.18 341.06 73.59C341.35 73.29 341.65 73 341.96 72.73C342.27 72.44 342.59 72.17 342.91 71.92C343.56 71.39 344.23 70.91 344.92 70.48C346.65 69.38 348.52 68.52 350.5 67.94C350.57 67.92 350.65 67.89 350.74 67.87C351.07 67.78 351.4 67.69 351.73 67.62C352.13 67.52 352.53 67.44 352.94 67.37C352.94 67.37 352.95 67.37 352.96 67.37C353.37 67.29 353.79 67.23 354.2 67.19C354.62 67.14 355.04 67.1 355.46 67.08C355.89 67.05 356.31 67.04 356.74 67.04C367.28 67.04 376.41 74.54 378.45 84.85C378.9 87.13 380.82 88.84 383.14 88.99C389.93 89.48 395.25 95.14 395.25 101.91C395.24 109.1 389.39 114.95 382.21 114.95Z" fill="#1D1D1B"/>
<path d="M65.62 125.25C65.28 125.27 64.93 125.28 64.57 125.28C64.19 125.28 63.82 125.27 63.45 125.25H65.62Z" fill="#1D1D1B"/>
<path d="M89.21 125.25C88.81 125.27 88.4 125.28 87.99 125.28C87.63 125.28 87.28 125.27 86.94 125.25H89.21Z" fill="#1D1D1B"/>
<path d="M106.61 125.25C106.22 125.27 105.82 125.28 105.42 125.28C105.01 125.28 104.6 125.27 104.2 125.25H106.61Z" fill="#1D1D1B"/>
<path d="M138.96 125.25C138.62 125.27 138.27 125.28 137.91 125.28C137.51 125.28 137.12 125.27 136.73 125.25H138.96Z" fill="#1D1D1B"/>
<path d="M197.37 125.25C197.01 125.27 196.64 125.28 196.26 125.28C195.9 125.28 195.55 125.27 195.21 125.25H197.37Z" fill="#1D1D1B"/>
<path d="M238.09 125.25C237.71 125.27 237.33 125.28 236.94 125.28C236.56 125.28 236.18 125.27 235.81 125.25H238.09Z" fill="#1D1D1B"/>
<path d="M264.95 125.25C264.6 125.27 264.24 125.28 263.89 125.28C263.6 125.28 263.29 125.27 262.97 125.25H264.95Z" fill="#1D1D1B"/>
<path d="M281.62 125.25C281.34 125.27 281.07 125.28 280.79 125.28C280.4 125.28 280.02 125.27 279.65 125.25H281.62Z" fill="#1D1D1B"/>
<path d="M310.81 125.25C310.44 125.27 310.05 125.28 309.66 125.28C309.38 125.28 309.11 125.27 308.84 125.25H310.81Z" fill="#1D1D1B"/>
</svg>
